<svg width="23" height="38" viewBox="0 0 23 38" fill="none" xmlns="http://www.w3.org/2000/svg">
<path d="M6.50414 23.3771C6.50414 17.7067 14.5796 13.9648 14.5796 7.77946C14.5796 4.16049 11.9672 1.0179 11.5753 0.833496C11.606 1.08705 11.6214 1.3483 11.6214 1.60186C11.6214 8.67844 0.318848 13.4269 0.318848 22.24C0.318848 26.0664 2.79296 28.3254 5.42843 30.5613C10.4305 34.1495 11.4293 36.0474 11.4293 37.2153C11.4293 37.9913 11.0605 38.5215 11.0605 38.9287C12.0671 37.6456 12.3975 36.4777 12.4051 35.3635C12.4051 33.0892 10.7378 31.0377 9.00899 28.7172C7.77961 27.0038 6.50414 25.444 6.50414 23.3771ZM22.2785 20.3805C21.3488 15.2479 16.2853 10.8222 15.0022 10.3227L15.3095 10.8759C15.4939 11.2678 15.5708 11.7135 15.5708 12.1898C15.5708 15.6244 11.4063 20.734 11.2219 21.1566C11.0528 21.5485 10.976 21.9634 10.976 22.3706C10.976 23.915 12.1439 25.6054 12.3513 25.6054C12.5358 25.6054 16.7003 21.3487 16.8155 18.8669C17.3073 19.7659 17.5147 20.6034 17.5147 21.4332C17.5147 24.5988 14.303 28.8786 14.303 28.8786C14.303 29.7699 16.754 32.9663 17.0307 32.9663C17.1075 32.9663 17.1997 32.8587 17.2765 32.7819C20.1886 29.7622 22.4476 26.2508 22.4476 22.2707C22.4476 21.656 22.3938 21.026 22.2785 20.3805Z" fill="#06CDFD"/>
</svg>
