<svg width="21" height="25" viewBox="0 0 21 25" fill="none" xmlns="http://www.w3.org/2000/svg">
<path d="M14.6336 16.7186C14.6336 17.9417 15.4037 18.995 16.4683 19.4367L16.4683 23.1626C16.4683 23.7288 16.9666 24.2045 17.5668 24.2045C18.167 24.2045 18.654 23.7288 18.654 23.1626L18.654 19.4367C19.7299 19.0063 20.5 17.9531 20.5 16.7186C20.5 15.4842 19.7299 14.431 18.654 14.0006L18.654 1.87153C18.654 1.27131 18.167 0.795654 17.5668 0.795654C16.9666 0.795654 16.4683 1.27131 16.4683 1.87153L16.4683 14.0006C15.4037 14.4423 14.6336 15.4955 14.6336 16.7186ZM16.1738 16.7186C16.1738 15.9372 16.7967 15.3257 17.5668 15.3257C18.3596 15.3257 18.9711 15.9372 18.9711 16.7186C18.9711 17.5114 18.3596 18.1116 17.5668 18.1116C16.7967 18.1116 16.1738 17.5114 16.1738 16.7186ZM11.5872 1.83756C11.5872 1.27131 11.1002 0.795654 10.5 0.795654C9.9111 0.795654 9.4128 1.2713 9.4128 1.83756L9.4128 5.68807C8.32559 6.12974 7.56682 7.18297 7.56682 8.4174C7.56682 9.6405 8.32559 10.6937 9.4128 11.1354L9.4128 23.1286C9.4128 23.7288 9.89977 24.2045 10.5 24.2045C11.1002 24.2045 11.5872 23.7288 11.5872 23.1286L11.5872 11.1354C12.6631 10.6937 13.4219 9.6405 13.4219 8.4174C13.4219 7.18297 12.6631 6.12974 11.5872 5.68807L11.5872 1.83756ZM9.0957 8.4174C9.0957 7.63597 9.71857 7.01309 10.5 7.01309C11.2928 7.01309 11.893 7.63597 11.893 8.4174C11.893 9.19882 11.2928 9.81038 10.5 9.81038C9.71857 9.81038 9.0957 9.19882 9.0957 8.4174ZM0.499999 16.7186C0.499999 17.9531 1.2701 19.0063 2.34598 19.4367L2.34598 23.1626C2.34598 23.7288 2.83296 24.2045 3.43318 24.2045C4.04473 24.2045 4.52038 23.7288 4.52038 23.1626L4.52038 19.4367C5.59626 19.0063 6.36636 17.9531 6.36636 16.7186C6.36636 15.4955 5.59626 14.431 4.52038 14.0006L4.52038 1.87153C4.52038 1.2713 4.03341 0.795654 3.43318 0.795654C2.84428 0.795654 2.34598 1.2713 2.34598 1.87153L2.34598 14.0006C1.2701 14.431 0.499999 15.4842 0.499999 16.7186ZM2.0402 16.7186C2.0402 15.9372 2.66308 15.3257 3.43318 15.3257C4.22593 15.3257 4.82616 15.9372 4.82616 16.7186C4.82616 17.5114 4.22593 18.1116 3.43318 18.1116C2.66308 18.1116 2.0402 17.5114 2.0402 16.7186Z" fill="white"/>
</svg>
